<svg width="958" height="400" viewBox="0 0 958 400" fill="none" xmlns="http://www.w3.org/2000/svg">
<g clip-path="url(#clip0_2_35)">
<path d="M-37 -20H1572V538H-37V-20Z" fill="#BD0707"/>
<path d="M-41.898 98.5404C-20.6343 78.3796 -2.52304 54.9254 12.7342 27.9021C38.4032 -17.5735 84.1281 -60.9195 132.059 -85.2065C134.423 -86.4105 136.676 -88.9875 137.086 -90.9705C137.498 -92.9555 135.914 -93.5935 133.548 -92.3955C82.1061 -66.3235 33.0087 -19.7619 5.40996 29.1239C-22.9742 79.4051 -61.9862 116.397 -113.854 142.199C-116.216 143.373 -118.483 145.947 -118.925 147.948C-119.366 149.946 -117.809 150.612 -115.449 149.44C-87.578 135.572 -63.1639 118.703 -41.898 98.5404Z" fill="white"/>
<path d="M157.346 -67.2945C105.901 -41.2185 56.8031 5.34267 29.2084 54.2247C0.823551 104.513 -38.1919 141.502 -90.0559 167.299C-92.4177 168.474 -94.6862 171.046 -95.125 173.046C-95.5675 175.046 -94.0099 175.713 -91.6503 174.54C-63.7816 160.675 -39.3674 143.809 -18.1018 123.647C3.16006 103.484 21.2736 80.0314 36.5328 53.003C62.1961 7.52937 107.924 -35.8135 155.857 -60.1065C158.221 -61.3095 160.476 -63.8885 160.886 -65.8715C161.297 -67.8545 159.712 -68.4925 157.346 -67.2945Z" fill="white"/>
<path d="M181.145 -42.1935C129.703 -16.1146 80.607 30.4449 53.007 79.3252C24.6301 129.606 -14.3765 166.596 -66.2573 192.4C-68.6189 193.574 -70.8858 196.148 -71.3263 198.147C-71.7688 200.147 -70.2113 200.813 -67.8515 199.641C-39.9793 185.775 -15.5615 168.906 5.70075 148.743C26.9644 128.583 45.0758 105.128 60.3294 78.1054C86.0021 32.6295 131.723 -10.7134 179.656 -35.0055C182.02 -36.2085 184.275 -38.7885 184.685 -40.7715C185.095 -42.7545 183.511 -43.3915 181.145 -42.1935Z" fill="white"/>
<g clip-path="url(#clip1_2_35)">
<path d="M544.364 562.821C525.318 540.554 502.821 521.266 476.614 504.645C432.512 476.683 391.562 428.8 369.76 379.688C368.679 377.266 366.221 374.884 364.261 374.373C362.3 373.86 361.582 375.41 362.657 377.834C386.062 430.542 430.05 481.958 477.459 512.023C526.222 542.943 561.169 583.797 584.283 636.917C585.335 639.336 587.789 641.732 589.764 642.276C591.737 642.818 592.483 641.297 591.433 638.88C579.01 610.336 563.412 585.091 544.364 562.821Z" fill="white"/>
<path d="M388.943 355.351C412.352 408.064 456.339 459.48 503.745 489.54C552.515 520.461 587.458 561.318 610.569 614.435C611.62 616.854 614.073 619.251 616.048 619.791C618.023 620.336 618.769 618.814 617.719 616.398C605.297 587.856 589.703 562.611 570.655 540.341C551.607 518.075 529.112 498.785 502.9 482.163C458.799 454.206 417.853 406.319 396.046 357.206C394.965 354.783 392.505 352.399 390.545 351.888C388.586 351.377 387.868 352.927 388.943 355.351Z" fill="white"/>
<path d="M415.229 332.868C438.641 385.577 482.627 436.991 530.031 467.057C578.794 497.97 613.739 538.818 636.854 591.952C637.906 594.37 640.361 596.766 642.334 597.308C644.309 597.853 645.054 596.331 644.004 593.915C631.583 565.369 615.985 540.12 596.937 517.854C577.891 495.586 555.394 476.298 529.187 459.682C485.085 431.716 444.138 383.836 422.331 334.723C421.251 332.301 418.79 329.916 416.831 329.405C414.871 328.894 414.153 330.444 415.229 332.868Z" fill="white"/>
</g>
<g clip-path="url(#clip2_2_35)">
<path d="M856.197 368.957C877.461 348.796 895.572 325.342 910.829 298.319C936.498 252.843 982.223 209.497 1030.15 185.21C1032.52 184.007 1034.77 181.429 1035.18 179.446C1035.59 177.461 1034.01 176.824 1031.64 178.022C980.201 204.094 931.104 250.655 903.505 299.541C875.121 349.822 836.109 386.814 784.241 412.616C781.879 413.79 779.612 416.364 779.17 418.364C778.729 420.362 780.286 421.029 782.646 419.857C810.517 405.989 834.931 389.12 856.197 368.957Z" fill="white"/>
<path d="M1055.44 203.122C1004 229.198 954.898 275.759 927.303 324.641C898.919 374.93 859.903 411.918 808.039 437.717C805.677 438.891 803.409 441.463 802.97 443.463C802.527 445.463 804.085 446.13 806.445 444.958C834.313 431.092 858.728 414.226 879.993 394.064C901.255 373.901 919.368 350.448 934.628 323.42C960.291 277.946 1006.02 234.603 1053.95 210.311C1056.32 209.108 1058.57 206.528 1058.98 204.545C1059.39 202.562 1057.81 201.924 1055.44 203.122Z" fill="white"/>
<path d="M1079.24 228.223C1027.8 254.302 978.702 300.862 951.102 349.742C922.725 400.023 883.718 437.013 831.838 462.817C829.476 463.992 827.209 466.565 826.769 468.564C826.326 470.564 827.884 471.231 830.243 470.058C858.116 456.192 882.533 439.323 903.796 419.16C925.059 399 943.171 375.545 958.424 348.522C984.097 303.046 1029.82 259.703 1077.75 235.411C1080.11 234.208 1082.37 231.629 1082.78 229.646C1083.19 227.663 1081.61 227.025 1079.24 228.223Z" fill="white"/>
</g>
<path d="M647.102 24.5403C668.366 4.37957 686.477 -19.0746 701.734 -46.0979C727.403 -91.5736 773.128 -134.92 821.059 -159.207C823.423 -160.411 825.676 -162.988 826.086 -164.971C826.498 -166.956 824.914 -167.594 822.548 -166.396C771.106 -140.324 722.009 -93.7619 694.41 -44.8762C666.026 5.40497 627.014 42.3971 575.146 68.1995C572.784 69.3735 570.517 71.9475 570.075 73.9475C569.634 75.9455 571.191 76.6125 573.551 75.4405C601.422 61.5724 625.836 44.7034 647.102 24.5403Z" fill="white"/>
<path d="M846.346 -141.295C794.901 -115.219 745.803 -68.6574 718.208 -19.7753C689.824 30.5132 650.808 67.5015 598.944 93.2995C596.582 94.4745 594.314 97.0465 593.875 99.0465C593.432 101.046 594.99 101.713 597.35 100.54C625.218 86.6755 649.632 69.8095 670.898 49.6467C692.16 29.4842 710.273 6.03138 725.533 -20.997C751.196 -66.4707 796.924 -109.814 844.857 -134.106C847.221 -135.309 849.476 -137.889 849.886 -139.872C850.297 -141.855 848.712 -142.493 846.346 -141.295Z" fill="white"/>
<path d="M870.145 -116.194C818.703 -90.1146 769.607 -43.5552 742.007 5.32515C713.63 55.606 674.624 92.5965 622.743 118.4C620.381 119.574 618.114 122.148 617.674 124.146C617.231 126.147 618.789 126.813 621.148 125.641C649.021 111.775 673.439 94.9065 694.701 74.7435C715.964 54.5827 734.076 31.1285 749.329 4.10535C775.002 -41.3705 820.723 -84.7135 868.656 -109.006C871.02 -110.209 873.275 -112.788 873.685 -114.771C874.095 -116.754 872.511 -117.392 870.145 -116.194Z" fill="white"/>
</g>
<defs>
<clipPath id="clip0_2_35">
<rect width="958" height="400" rx="10" fill="white"/>
</clipPath>
<clipPath id="clip1_2_35">
<rect width="108" height="77" fill="white" transform="translate(359 323)"/>
</clipPath>
<clipPath id="clip2_2_35">
<rect width="168" height="100" fill="white" transform="translate(790 302)"/>
</clipPath>
</defs>
</svg>
