<svg width="18" height="20" viewBox="0 0 18 20" fill="none" xmlns="http://www.w3.org/2000/svg">
<path d="M1.25183 6.59668H1.6021L3.29929 19.4905C3.33765 19.7821 3.58617 20 3.88023 20H14.1199C14.4139 20 14.6624 19.7821 14.7008 19.4905L16.398 6.59668H16.7483C17.0719 6.59668 17.3342 6.33434 17.3342 6.01074V3.44711C17.3342 3.12352 17.0719 2.86117 16.7483 2.86117H11.7343V2.63027C11.7343 1.17996 10.5544 0 9.10406 0H8.89605C7.44574 0 6.26578 1.17996 6.26578 2.63027V2.86117H1.25183C0.928237 2.86117 0.665894 3.12352 0.665894 3.44711V6.01074C0.665894 6.33434 0.928198 6.59668 1.25183 6.59668ZM13.606 18.8281H4.39406L2.7841 6.59668H15.216L13.606 18.8281ZM7.43761 2.63027C7.43761 1.82613 8.09187 1.17188 8.89601 1.17188H9.10402C9.90816 1.17188 10.5624 1.82613 10.5624 2.63027V2.86117H7.43761V2.63027ZM1.83777 4.03305H16.1623V5.4248C16.0371 5.4248 1.99402 5.4248 1.83777 5.4248V4.03305Z" fill="#BD0707"/>
</svg>
